<mxfile host="65bd71144e">
    <diagram id="Ht1M8jgEwFfnCIfOTk4-" name="Page-1">
        <mxGraphModel dx="2251" dy="1244" grid="1" gridSize="10" guides="1" tooltips="1" connect="1" arrows="1" fold="1" page="1" pageScale="1" pageWidth="1169" pageHeight="827" math="0" shadow="0">
            <root>
                <mxCell id="0"/>
                <mxCell id="1" parent="0"/>
                <mxCell id="eOu0USLBRQf4aK9qrBRd-1" value="&lt;b&gt;&lt;font style=&quot;font-size: 14px;&quot;&gt;AWS Glue Schema Registry&lt;/font&gt;&lt;/b&gt;" style="sketch=0;points=[[0,0,0],[0.25,0,0],[0.5,0,0],[0.75,0,0],[1,0,0],[0,1,0],[0.25,1,0],[0.5,1,0],[0.75,1,0],[1,1,0],[0,0.25,0],[0,0.5,0],[0,0.75,0],[1,0.25,0],[1,0.5,0],[1,0.75,0]];outlineConnect=0;fontColor=#232F3E;gradientColor=#945DF2;gradientDirection=north;fillColor=#5A30B5;strokeColor=#ffffff;dashed=0;verticalLabelPosition=bottom;verticalAlign=top;align=center;html=1;fontSize=12;fontStyle=0;aspect=fixed;shape=mxgraph.aws4.resourceIcon;resIcon=mxgraph.aws4.glue;" parent="1" vertex="1">
                    <mxGeometry x="520" y="300" width="78" height="78" as="geometry"/>
                </mxCell>
                <mxCell id="eOu0USLBRQf4aK9qrBRd-11" style="edgeStyle=orthogonalEdgeStyle;rounded=0;orthogonalLoop=1;jettySize=auto;html=1;exitX=1;exitY=0.5;exitDx=0;exitDy=0;exitPerimeter=0;entryX=0;entryY=0.5;entryDx=0;entryDy=0;fontSize=14;" parent="1" source="eOu0USLBRQf4aK9qrBRd-2" target="eOu0USLBRQf4aK9qrBRd-7" edge="1">
                    <mxGeometry relative="1" as="geometry"/>
                </mxCell>
                <mxCell id="eOu0USLBRQf4aK9qrBRd-2" value="&lt;font style=&quot;font-size: 14px;&quot;&gt;&lt;b&gt;Amazon MSK Cluster&lt;/b&gt;&lt;/font&gt;" style="sketch=0;points=[[0,0,0],[0.25,0,0],[0.5,0,0],[0.75,0,0],[1,0,0],[0,1,0],[0.25,1,0],[0.5,1,0],[0.75,1,0],[1,1,0],[0,0.25,0],[0,0.5,0],[0,0.75,0],[1,0.25,0],[1,0.5,0],[1,0.75,0]];outlineConnect=0;fontColor=#232F3E;gradientColor=#945DF2;gradientDirection=north;fillColor=#5A30B5;strokeColor=#ffffff;dashed=0;verticalLabelPosition=bottom;verticalAlign=top;align=center;html=1;fontSize=12;fontStyle=0;aspect=fixed;shape=mxgraph.aws4.resourceIcon;resIcon=mxgraph.aws4.managed_streaming_for_kafka;" parent="1" vertex="1">
                    <mxGeometry x="520" y="150" width="78" height="78" as="geometry"/>
                </mxCell>
                <mxCell id="eOu0USLBRQf4aK9qrBRd-9" style="edgeStyle=orthogonalEdgeStyle;rounded=0;orthogonalLoop=1;jettySize=auto;html=1;exitX=1;exitY=0.5;exitDx=0;exitDy=0;entryX=0;entryY=0.5;entryDx=0;entryDy=0;entryPerimeter=0;fontSize=14;" parent="1" source="eOu0USLBRQf4aK9qrBRd-5" target="eOu0USLBRQf4aK9qrBRd-2" edge="1">
                    <mxGeometry relative="1" as="geometry"/>
                </mxCell>
                <mxCell id="eOu0USLBRQf4aK9qrBRd-18" value="② Publish AVRO records" style="edgeLabel;html=1;align=center;verticalAlign=middle;resizable=0;points=[];fontSize=14;fontFamily=Helvetica;" parent="eOu0USLBRQf4aK9qrBRd-9" vertex="1" connectable="0">
                    <mxGeometry x="-0.1017" y="-1" relative="1" as="geometry">
                        <mxPoint x="10" y="-12" as="offset"/>
                    </mxGeometry>
                </mxCell>
                <mxCell id="2" value="③ Read AVRO records" style="edgeLabel;html=1;align=center;verticalAlign=middle;resizable=0;points=[];fontSize=14;fontFamily=Helvetica;" vertex="1" connectable="0" parent="eOu0USLBRQf4aK9qrBRd-9">
                    <mxGeometry x="-0.1017" y="-1" relative="1" as="geometry">
                        <mxPoint x="270" y="-12" as="offset"/>
                    </mxGeometry>
                </mxCell>
                <mxCell id="3" value="④&amp;nbsp;Request schema (if not cached)" style="edgeLabel;html=1;align=center;verticalAlign=middle;resizable=0;points=[];fontSize=14;fontFamily=Helvetica;" vertex="1" connectable="0" parent="eOu0USLBRQf4aK9qrBRd-9">
                    <mxGeometry x="-0.1017" y="-1" relative="1" as="geometry">
                        <mxPoint x="320" y="160" as="offset"/>
                    </mxGeometry>
                </mxCell>
                <mxCell id="eOu0USLBRQf4aK9qrBRd-10" style="edgeStyle=orthogonalEdgeStyle;rounded=0;orthogonalLoop=1;jettySize=auto;html=1;exitX=0.5;exitY=1;exitDx=0;exitDy=0;entryX=0;entryY=0.5;entryDx=0;entryDy=0;entryPerimeter=0;fontSize=14;startArrow=classic;startFill=1;" parent="1" source="eOu0USLBRQf4aK9qrBRd-5" target="eOu0USLBRQf4aK9qrBRd-1" edge="1">
                    <mxGeometry relative="1" as="geometry"/>
                </mxCell>
                <mxCell id="eOu0USLBRQf4aK9qrBRd-15" value="① Validate / register schema" style="edgeLabel;html=1;align=center;verticalAlign=middle;resizable=0;points=[];fontSize=14;" parent="eOu0USLBRQf4aK9qrBRd-10" vertex="1" connectable="0">
                    <mxGeometry x="-0.0556" y="-1" relative="1" as="geometry">
                        <mxPoint x="10" y="10" as="offset"/>
                    </mxGeometry>
                </mxCell>
                <mxCell id="eOu0USLBRQf4aK9qrBRd-5" value="&lt;b&gt;Producer&lt;/b&gt;" style="rounded=1;whiteSpace=wrap;html=1;fontSize=14;verticalAlign=top;" parent="1" vertex="1">
                    <mxGeometry x="180" y="129" width="140" height="120" as="geometry"/>
                </mxCell>
                <mxCell id="eOu0USLBRQf4aK9qrBRd-4" value="Serializer" style="rounded=1;whiteSpace=wrap;html=1;fontSize=14;" parent="1" vertex="1">
                    <mxGeometry x="190" y="178" width="120" height="60" as="geometry"/>
                </mxCell>
                <mxCell id="eOu0USLBRQf4aK9qrBRd-12" style="edgeStyle=orthogonalEdgeStyle;rounded=0;orthogonalLoop=1;jettySize=auto;html=1;exitX=0.5;exitY=1;exitDx=0;exitDy=0;entryX=1;entryY=0.5;entryDx=0;entryDy=0;entryPerimeter=0;fontSize=14;startArrow=classic;startFill=1;" parent="1" source="eOu0USLBRQf4aK9qrBRd-7" target="eOu0USLBRQf4aK9qrBRd-1" edge="1">
                    <mxGeometry relative="1" as="geometry"/>
                </mxCell>
                <mxCell id="eOu0USLBRQf4aK9qrBRd-7" value="&lt;b&gt;Consumer&lt;/b&gt;" style="rounded=1;whiteSpace=wrap;html=1;fontSize=14;verticalAlign=top;" parent="1" vertex="1">
                    <mxGeometry x="770" y="129" width="140" height="120" as="geometry"/>
                </mxCell>
                <mxCell id="eOu0USLBRQf4aK9qrBRd-8" value="Deserializer" style="rounded=1;whiteSpace=wrap;html=1;fontSize=14;" parent="1" vertex="1">
                    <mxGeometry x="780" y="178" width="120" height="60" as="geometry"/>
                </mxCell>
            </root>
        </mxGraphModel>
    </diagram>
</mxfile>
